<svg width="18" height="21" viewBox="0 0 18 21" fill="none" xmlns="http://www.w3.org/2000/svg">
<g id="transaction_icon">
<path id="Vector" d="M3.92365 5.43145C4.13877 5.64477 4.42946 5.76447 4.73242 5.76447C5.03538 5.76447 5.32607 5.64477 5.54119 5.43145C5.64713 5.32645 5.73121 5.20152 5.7886 5.06385C5.84598 4.92618 5.87552 4.77851 5.87552 4.62936C5.87552 4.48021 5.84598 4.33253 5.7886 4.19486C5.73121 4.0572 5.64713 3.93226 5.54119 3.82726C5.32607 3.61394 5.03538 3.49425 4.73242 3.49425C4.42946 3.49425 4.13877 3.61394 3.92365 3.82726C3.47846 4.27097 3.47846 4.98922 3.92365 5.43145ZM17.0139 12.1094C17.2912 11.8345 17.5114 11.5075 17.6617 11.147C17.8119 10.7866 17.8893 10.4 17.8893 10.0095C17.8893 9.61905 17.8119 9.23244 17.6617 8.87203C17.5114 8.51162 17.2912 8.18454 17.0139 7.9097L9.9501 0.890462C9.39144 0.336196 8.63723 0.0238498 7.85027 0.0208485L3.00655 7.26358e-05C2.61268 -0.00267806 2.22218 0.0727231 1.85765 0.221911C1.49312 0.371099 1.1618 0.591111 0.88287 0.869211C0.603943 1.14731 0.382946 1.47797 0.232676 1.84206C0.0824051 2.20615 0.0058403 2.59642 0.00741959 2.9903L0.0430355 7.99577C0.0494556 8.77667 0.364151 9.5234 0.918587 10.0733L7.87846 16.9887C8.44035 17.5453 9.19927 17.8576 9.99017 17.8576C10.7811 17.8576 11.54 17.5453 12.1019 16.9887L17.0139 12.1094ZM15.9573 8.95888C16.096 9.0963 16.206 9.25983 16.2812 9.44004C16.3563 9.62025 16.395 9.81355 16.395 10.0088C16.395 10.204 16.3563 10.3973 16.2812 10.5775C16.206 10.7578 16.096 10.9213 15.9573 11.0587L11.0453 15.941C10.4621 16.5198 9.51678 16.5198 8.93358 15.941L1.9737 9.02417C1.69696 8.749 1.54014 8.37564 1.53741 7.98538L1.50031 2.97991C1.49932 2.78282 1.53748 2.58749 1.61259 2.40527C1.68769 2.22305 1.79823 2.05756 1.93781 1.9184C2.07738 1.77924 2.2432 1.66919 2.42564 1.59463C2.60809 1.52006 2.80353 1.48248 3.00061 1.48406L7.84433 1.50483C8.23807 1.50614 8.61548 1.66232 8.89499 1.93964L15.9588 8.95888H15.9573ZM17.8122 12.9849C18.0116 13.5184 18.0532 14.098 17.9322 14.6546C17.8112 15.2111 17.5325 15.721 17.1296 16.1235L14.2151 19.0381C13.6639 19.5893 13.0095 20.0266 12.2893 20.3249C11.5691 20.6232 10.7972 20.7768 10.0176 20.7768C9.23808 20.7768 8.46617 20.6232 7.74597 20.3249C7.02577 20.0266 6.37139 19.5893 5.82018 19.0381L0.652954 13.8709C0.235384 13.4538 0.000518799 12.888 0 12.2978V11.1403L5.82018 16.9605C5.92257 17.0629 6.02794 17.1608 6.13479 17.2529L6.86936 17.9889C7.28277 18.4024 7.77358 18.7304 8.31377 18.9542C8.85395 19.1779 9.43292 19.2931 10.0176 19.2931C10.6023 19.2931 11.1813 19.1779 11.7215 18.9542C12.2617 18.7304 12.7525 18.4024 13.1659 17.9889L13.9064 17.2484C14.0126 17.1561 14.1156 17.06 14.2151 16.9605L17.1296 14.046C17.4308 13.7455 17.6637 13.3836 17.8122 12.9849Z" fill="white"/>
</g>
</svg>
